<?xml version="1.0" encoding="UTF-8" standalone="no"?>
<!-- Created with Inkscape (http://www.inkscape.org/) -->

<svg
   xmlns:dc="http://purl.org/dc/elements/1.1/"
   xmlns:cc="http://creativecommons.org/ns#"
   xmlns:rdf="http://www.w3.org/1999/02/22-rdf-syntax-ns#"
   xmlns:svg="http://www.w3.org/2000/svg"
   xmlns="http://www.w3.org/2000/svg"
   xmlns:sodipodi="http://sodipodi.sourceforge.net/DTD/sodipodi-0.dtd"
   xmlns:inkscape="http://www.inkscape.org/namespaces/inkscape"
   version="1.1"
   width="12"
   height="12"
   id="svg2985"
   inkscape:version="0.48.4 r9939"
   sodipodi:docname="list-good.svg">
  <sodipodi:namedview
     pagecolor="#ffffff"
     bordercolor="#666666"
     borderopacity="1"
     objecttolerance="10"
     gridtolerance="10"
     guidetolerance="10"
     inkscape:pageopacity="0"
     inkscape:pageshadow="2"
     inkscape:window-width="1920"
     inkscape:window-height="1021"
     id="namedview11"
     showgrid="true"
     inkscape:zoom="1"
     inkscape:cx="6.0000002"
     inkscape:cy="6.5012669"
     inkscape:window-x="0"
     inkscape:window-y="27"
     inkscape:window-maximized="1"
     inkscape:current-layer="layer1">
    <inkscape:grid
       type="xygrid"
       id="grid3873" />
  </sodipodi:namedview>
  <defs
     id="defs2987" />
  <metadata
     id="metadata2990">
    <rdf:RDF>
      <cc:Work
         rdf:about="">
        <dc:format>image/svg+xml</dc:format>
        <dc:type
           rdf:resource="http://purl.org/dc/dcmitype/StillImage" />
        <dc:title></dc:title>
      </cc:Work>
    </rdf:RDF>
  </metadata>
  <g
     transform="translate(0,-4)"
     id="layer1">
    <path
       sodipodi:type="inkscape:offset"
       inkscape:radius="0.99149454"
       inkscape:original="M 6 2 L 2 9 L 10 9 L 6 2 z "
       style="fill:#ff6600;fill-opacity:1;stroke:none"
       id="path3879"
       d="M 5.9375,1 A 0.99159369,0.99159369 0 0 0 5.125,1.5 l -4,7 A 0.99159369,0.99159369 0 0 0 2,10 l 8,0 a 0.99159369,0.99159369 0 0 0 0.875,-1.5 l -4,-7 A 0.99159369,0.99159369 0 0 0 5.9375,1 z"
       transform="matrix(1.0785403,0,0,1.0785403,-0.47124184,3.5681278)" />
    <rect
       style="fill:#ffffff;fill-opacity:1;stroke:none"
       id="rect3883"
       width="1.5144839"
       height="4.2844238"
       x="5.2427578"
       y="6.7265158" />
    <path
       sodipodi:type="arc"
       style="fill:#ffffff;fill-opacity:1;stroke:none"
       id="path3885"
       sodipodi:cx="-0.51032805"
       sodipodi:cy="4.6512756"
       sodipodi:rx="0.65127581"
       sodipodi:ry="0.65127581"
       d="m 0.14094776,4.6512756 a 0.65127581,0.65127581 0 1 1 -1.30255166,0 0.65127581,0.65127581 0 1 1 1.30255166,0 z"
       transform="matrix(1.31914,0,0,1.31914,6.6804846,6.372282)" />
  </g>
</svg>
